<svg xmlns="http://www.w3.org/2000/svg" viewBox="0 0 640 360">
  <defs>
    <linearGradient id="g" x1="0" y1="0" x2="1" y2="1">
      <stop offset="0" stop-color="#eff6e0"/>
      <stop offset="1" stop-color="#dbe7cc"/>
    </linearGradient>
  </defs>
  <rect width="640" height="360" rx="16" fill="url(#g)"/>
  <rect x="20" y="20" width="600" height="60" rx="10" fill="#fff" stroke="#d7e3d1"/>
  <circle cx="40" cy="50" r="6" fill="#56e39f"/>
  <circle cx="58" cy="50" r="6" fill="#59c9a5"/>
  <circle cx="76" cy="50" r="6" fill="#598392"/>
  <rect x="20" y="100" width="600" height="240" rx="12" fill="#ffffff" stroke="#d7e3d1"/>
  <!-- left menu -->
  <rect x="36" y="116" width="120" height="208" rx="8" fill="#f5f7f3"/>
  <rect x="44" y="126" width="104" height="14" rx="7" fill="#aec3b0" opacity="0.5"/>
  <rect x="44" y="148" width="72" height="10" rx="5" fill="#598392" opacity="0.6"/>
  <rect x="44" y="168" width="90" height="10" rx="5" fill="#598392" opacity="0.6"/>
  <rect x="44" y="188" width="82" height="10" rx="5" fill="#598392" opacity="0.6"/>
  <!-- grid items -->
  <g fill="#f2f4f6">
    <rect x="176" y="120" width="120" height="90" rx="8"/>
    <rect x="304" y="120" width="120" height="90" rx="8"/>
    <rect x="432" y="120" width="120" height="90" rx="8"/>
    <rect x="176" y="220" width="120" height="90" rx="8"/>
    <rect x="304" y="220" width="120" height="90" rx="8"/>
    <rect x="432" y="220" width="120" height="90" rx="8"/>
  </g>
  <!-- totals -->
  <rect x="432" y="324" width="188" height="20" rx="10" fill="#56e39f" opacity="0.7"/>
</svg>
